<?xml version="1.0" encoding="UTF-8"?>
<svg width="99px" height="87px" viewBox="0 0 99 87" version="1.1" xmlns="http://www.w3.org/2000/svg" xmlns:xlink="http://www.w3.org/1999/xlink">
    <!-- Generator: Sketch 64 (93537) - https://sketch.com -->
    <title>Combined Shape</title>
    <desc>Created with Sketch.</desc>
    <g id="Page-1" stroke="none" stroke-width="1" fill="none" fill-rule="evenodd">
        <g id="safari-pinned-tab" transform="translate(-1.000000, -1.000000)" fill="#000000">
            <g id="Group" transform="translate(50.100000, 44.000000) scale(-1, 1) rotate(-180.000000) translate(-50.100000, -44.000000) translate(0.100000, 0.500000)">
                <path d="M14.9,4.26325641e-14 L14.9,0.063 L14.9168943,0.054991334 L50.6854377,63.2175589 L86.4483491,0.0621409235 L86.6777846,0.188359278 L86.6777846,0.175146994 L99.7255814,0.175146994 L99.7255814,86.0549913 L86.6777846,86.0549913 L86.6777846,25.8730389 L55.7936501,80.7502592 L55.7941901,80.7700778 L45.5772254,80.7700778 L45.5772254,80.759047 L14.9,26.252 L14.9,85.5549913 L0.9,85.5549913 L0.9,4.26325641e-14 L14.9,4.26325641e-14 Z" id="Combined-Shape" transform="translate(50.312791, 43.027496) scale(1, -1) translate(-50.312791, -43.027496) "></path>
            </g>
        </g>
    </g>
</svg>