<?xml version="1.0" encoding="UTF-8"?>
<svg width="22px" height="15px" viewBox="0 0 22 15" version="1.1" xmlns="http://www.w3.org/2000/svg" xmlns:xlink="http://www.w3.org/1999/xlink">
    <!-- Generator: Sketch 64 (93537) - https://sketch.com -->
    <title>logo</title>
    <desc>Created with Sketch.</desc>
    <g id="Page-1" stroke="none" stroke-width="1" fill="none" fill-rule="evenodd">
        <g id="logo" fill="#000000" fill-rule="nonzero">
            <path d="M21.07,5.176 L21.07,14.176 L19,14.176 L19,5.176 L21.07,5.176 Z M20,4 C20.8284271,4 21.5,3.32842712 21.5,2.5 C21.5,1.67157288 20.8284271,1 20,1 C19.1715729,1 18.5,1.67157288 18.5,2.5 C18.5,3.32842712 19.1715729,4 20,4 Z M0,0.976 L2,0.976 L2,13.976 L0,13.976 L0,0.976 Z M6.7,13.2 L6.7,13.1983302 L0.284871805,1.94169239 L2.00030518,0.981811523 L7.483,10.543 L12.9648315,0.982893787 L13,1.002 L13,1 L15,1 L15,14 L13,14 L13,4.89 L8.266,13.197 L8.26608276,13.2 L6.7,13.2 Z" id="Sleek"></path>
        </g>
    </g>
</svg>