<?xml version="1.0" encoding="UTF-8"?>
<svg width="21px" height="13px" viewBox="0 0 21 13" version="1.1" xmlns="http://www.w3.org/2000/svg" xmlns:xlink="http://www.w3.org/1999/xlink">
    <!-- Generator: Sketch 64 (93537) - https://sketch.com -->
    <title>logo</title>
    <desc>Created with Sketch.</desc>
    <g id="Page-1" stroke="none" stroke-width="1" fill="none" fill-rule="evenodd">
        <g id="logo" fill="#000000" fill-rule="nonzero">
            <path d="M20.58,4.01658477 L20.58,13 L18.5581395,13 L18.5581395,4.01658477 L20.58,4.01658477 Z M19.5348837,3.01842752 C20.3440451,3.01842752 21,2.34809218 21,1.52119165 C21,0.694291112 20.3440451,0.023955774 19.5348837,0.023955774 C18.7257224,0.023955774 18.0697674,0.694291112 18.0697674,1.52119165 C18.0697674,2.34809218 18.7257224,3.01842752 19.5348837,3.01842752 Z M0,0 L1.95348837,0 L1.95348837,12.9760442 L0,12.9760442 L0,0 Z M6.54418605,12.2014742 L6.54418605,12.1998075 L0.278246879,0.963912859 L1.95378645,0.00580081381 L7.30897674,9.54937039 L12.6633238,0.00688108346 L12.6976744,0.0259520885 L12.6976744,0.023955774 L14.6511628,0.023955774 L14.6511628,13 L12.6976744,13 L12.6976744,3.90678747 L8.07376744,12.1984797 L8.07384828,12.2014742 L6.54418605,12.2014742 Z" id="Sleek"></path>
        </g>
    </g>
</svg>